<?xml version="1.0" encoding="UTF-8"?>
<svg version="1.1" xmlns="http://www.w3.org/2000/svg" width="406" height="319">
<path d="M0 0 C133.98 0 267.96 0 406 0 C406 105.27 406 210.54 406 319 C272.02 319 138.04 319 0 319 C0 213.73 0 108.46 0 0 Z " fill="#FAFAFA" transform="translate(0,0)"/>
<path d="M0 0 C1.39955933 0.02537842 1.39955933 0.02537842 2.82739258 0.05126953 C5.12283709 0.09532797 7.41641778 0.15690442 9.7109375 0.234375 C10.01335222 12.63912819 10.2437339 25.04299219 10.38449574 37.45069313 C10.45208855 43.21357872 10.54361641 48.97392653 10.69165039 54.73535156 C10.83385399 60.30529714 10.91082362 65.87281705 10.94434166 71.44443893 C10.96819666 73.56006411 11.01478357 75.67556976 11.08542824 77.79014969 C11.67112176 96.06341037 11.67112176 96.06341037 5.21820354 103.46878624 C3.0144008 105.69784338 0.7128099 107.7632737 -1.68096352 109.78539658 C-4.23864768 112.08999922 -6.24255445 114.70415155 -8.3515625 117.421875 C-10.92951834 120.72225225 -12.85888357 122.6617408 -16.2890625 125.234375 C-16.2890625 99.824375 -16.2890625 74.414375 -16.2890625 48.234375 C-16.9490625 48.234375 -17.6090625 48.234375 -18.2890625 48.234375 C-18.61197266 49.03681641 -18.61197266 49.03681641 -18.94140625 49.85546875 C-20.78156652 53.10375166 -23.28750073 55.61855518 -25.8515625 58.296875 C-29.67206815 62.35477129 -33.36104511 66.44637507 -36.8515625 70.796875 C-40.45918836 75.29172893 -44.28167715 79.54029705 -48.20556641 83.75634766 C-51.17636316 86.96754373 -53.98874571 90.26074341 -56.7265625 93.671875 C-60.57016307 98.45059128 -64.65866414 102.92595187 -68.84741211 107.39819336 C-71.96460195 110.74536827 -74.92480048 114.16442523 -77.7890625 117.734375 C-82.12833594 123.13874282 -86.79302665 128.18392623 -91.515625 133.25 C-94.86045457 136.83837428 -98.09453494 140.51182636 -101.2890625 144.234375 C-101.71123047 144.72486328 -102.13339844 145.21535156 -102.56835938 145.72070312 C-106.15146949 149.8837954 -109.72300146 154.05667377 -113.2890625 158.234375 C-113.81209961 158.84667969 -114.33513672 159.45898438 -114.87402344 160.08984375 C-116.38937902 161.8654884 -117.90218432 163.64326914 -119.4140625 165.421875 C-119.87522461 165.96223389 -120.33638672 166.50259277 -120.81152344 167.05932617 C-122.78727135 169.38926666 -124.59157231 171.68813971 -126.2890625 174.234375 C-115.0690625 174.234375 -103.8490625 174.234375 -92.2890625 174.234375 C-91.6290625 172.914375 -90.9690625 171.594375 -90.2890625 170.234375 C-88.46885582 168.16428035 -86.63093399 166.16082629 -84.7265625 164.171875 C-80.86986737 160.08040947 -77.16961015 155.94919065 -73.6640625 151.546875 C-69.93315273 146.89675557 -65.88718175 142.73282373 -61.62890625 138.56640625 C-58.97564677 135.92200573 -56.51966993 133.16155535 -54.0859375 130.31640625 C-51.19198154 126.96319206 -48.1917378 123.70598286 -45.20703125 120.43359375 C-43.16386758 118.18614981 -43.16386758 118.18614981 -41.2890625 115.234375 C-40.6290625 115.234375 -39.9690625 115.234375 -39.2890625 115.234375 C-36.68500733 150.61747546 -36.68500733 150.61747546 -42.3828125 159.0390625 C-45.34194458 162.41194138 -48.67333758 165.1166304 -52.32324219 167.70874023 C-55.81425875 170.41805004 -58.50610119 173.82504178 -61.2890625 177.234375 C-62.10632813 178.22824219 -62.92359375 179.22210938 -63.765625 180.24609375 C-65.20377232 182.03724086 -66.64126725 183.82891198 -68.078125 185.62109375 C-70.2890625 188.234375 -70.2890625 188.234375 -72.75 190.69140625 C-75.4000294 193.17149806 -75.4000294 193.17149806 -77.32133484 196.35073853 C-78.96548179 198.31976173 -79.8824612 199.12897992 -82.38587379 199.77788925 C-85.04549405 199.97395452 -87.64546413 199.97638181 -90.31176758 199.91552734 C-91.31711548 199.9164035 -92.32246338 199.91727966 -93.35827637 199.91818237 C-96.67584373 199.91400768 -99.99138035 199.86735855 -103.30859375 199.8203125 C-105.6107218 199.80912001 -107.91286415 199.80058008 -110.2150116 199.79458618 C-116.27016757 199.77169245 -122.3244581 199.71276287 -128.37927246 199.6463623 C-134.55936984 199.58495249 -140.73960725 199.55757384 -146.91992188 199.52734375 C-159.04334871 199.46302152 -171.1661336 199.36063414 -183.2890625 199.234375 C-182.35750811 197.97369058 -181.42330772 196.71496117 -180.48803711 195.45703125 C-179.7081266 194.4052771 -179.7081266 194.4052771 -178.91246033 193.33227539 C-176.4206192 190.11209462 -173.65712533 187.18040354 -170.8515625 184.234375 C-169.70237302 183.01112268 -168.55392858 181.78716998 -167.40625 180.5625 C-166.86452148 179.98564453 -166.32279297 179.40878906 -165.76464844 178.81445312 C-161.46304954 174.20824067 -157.4338258 169.437072 -153.5390625 164.484375 C-150.02981668 160.05200068 -146.27197477 155.89590328 -142.42236328 151.76220703 C-139.45380835 148.55657646 -136.64573113 145.27270773 -133.9140625 141.859375 C-129.86304526 136.82101306 -125.51682693 132.1313274 -121.08862305 127.4284668 C-117.05149917 123.1175996 -113.30100376 118.64210926 -109.61328125 114.02734375 C-106.40882609 110.17661192 -102.99668411 106.5336259 -99.53686523 102.91186523 C-96.06751396 99.23702655 -93.19235402 95.37131769 -90.2890625 91.234375 C-88.64417956 89.54620567 -86.97568708 87.88084185 -85.2890625 86.234375 C-83.5812283 84.32915293 -81.90843281 82.39588744 -80.234375 80.4609375 C-78.15866801 78.0851283 -76.03879514 75.75389863 -73.9140625 73.421875 C-70.82269449 70.00208172 -67.86447218 66.51478976 -64.9765625 62.921875 C-61.08585542 58.10771912 -56.95905784 53.58513166 -52.73120117 49.07104492 C-48.83309692 44.88543147 -45.2219571 40.52223074 -41.64453125 36.05859375 C-38.42267095 32.19556723 -34.98655116 28.55133477 -31.54150391 24.88793945 C-28.71161109 21.85486308 -26.09830157 18.79052857 -23.6640625 15.421875 C-22.8803125 14.37 -22.0965625 13.318125 -21.2890625 12.234375 C-20.6290625 12.234375 -19.9690625 12.234375 -19.2890625 12.234375 C-19.00804687 11.66203125 -18.72703125 11.0896875 -18.4375 10.5 C-18.05851563 9.75234375 -17.67953125 9.0046875 -17.2890625 8.234375 C-16.78246094 7.17476563 -16.78246094 7.17476563 -16.265625 6.09375 C-12.01186596 -0.54506468 -7.23991774 -0.2485754 0 0 Z " fill="#010101" transform="translate(227.2890625,59.765625)"/>
<path d="M0 0 C1.46548912 0.00079008 2.93112915 0.02895674 4.39575195 0.0793457 C5.16836868 0.08642044 5.94098541 0.09349518 6.73701477 0.1007843 C9.20367462 0.1287644 11.66806024 0.19150288 14.1340332 0.25512695 C15.80652645 0.28020545 17.47905529 0.30301942 19.15161133 0.32348633 C23.25079429 0.37860205 27.34827827 0.46489399 31.4465332 0.56762695 C30.13263982 3.45677751 28.70582455 5.5727935 26.50512695 7.8527832 C25.92609619 8.46017334 25.34706543 9.06756348 24.75048828 9.69335938 C24.13455811 10.33249268 23.51862793 10.97162598 22.8840332 11.63012695 C17.89643725 16.88166387 13.17517907 22.22934131 8.65356445 27.8918457 C6.18674777 30.88258806 3.58688011 33.73129553 0.9465332 36.56762695 C-2.50512851 40.27620078 -5.81869119 44.05268953 -8.9909668 48.00512695 C-13.78866455 53.96564194 -18.98503261 59.51386061 -24.19799805 65.10766602 C-26.04524508 67.09731609 -27.87100862 69.10426758 -29.6784668 71.13012695 C-30.19666992 71.70891602 -30.71487305 72.28770508 -31.2487793 72.8840332 C-32.64473291 74.6853985 -33.60379623 76.50096291 -34.5534668 78.56762695 C-33.7181543 78.88280273 -33.7181543 78.88280273 -32.8659668 79.2043457 C-29.75070024 81.04087954 -27.78785853 83.6013149 -25.5534668 86.38012695 C-21.61133019 91.17142182 -17.55294346 95.79682157 -13.3034668 100.31762695 C-9.41264117 104.47193548 -5.81657662 108.70193198 -2.39331055 113.25512695 C0.80042901 117.26933888 4.33892171 120.97697409 7.82543945 124.7355957 C11.10913428 128.28355211 14.29245737 131.90462653 17.4465332 135.56762695 C17.91800781 136.11273926 18.38948242 136.65785156 18.87524414 137.21948242 C20.50528132 139.10455603 22.13250939 140.99202135 23.7590332 142.88012695 C24.28746826 143.49162598 24.81590332 144.103125 25.36035156 144.7331543 C25.85929932 145.31403809 26.35824707 145.89492187 26.87231445 146.4934082 C27.32002197 147.01330322 27.76772949 147.53319824 28.22900391 148.06884766 C29.3914663 149.49983956 30.42385848 151.03361487 31.4465332 152.56762695 C26.60885711 152.81639985 21.77495856 152.99695858 16.93237305 153.11694336 C15.28880941 153.16698311 13.64568548 153.23504643 12.00366211 153.32202148 C-1.62016567 154.02513342 -1.62016567 154.02513342 -6.23291016 150.54760742 C-8.25754518 147.98748958 -9.90039336 145.37831774 -11.5534668 142.56762695 C-12.64086096 141.28110159 -13.76518326 140.02440969 -14.93237305 138.80981445 C-15.45742432 138.25132812 -15.98247559 137.6928418 -16.5234375 137.11743164 C-17.04897217 136.56474609 -17.57450684 136.01206055 -18.1159668 135.44262695 C-19.24693001 134.23760583 -20.37714542 133.0318824 -21.5065918 131.82543945 C-22.03575195 131.26115234 -22.56491211 130.69686523 -23.11010742 130.11547852 C-27.3978651 125.51730807 -31.41812032 120.75834924 -35.3034668 115.81762695 C-38.54135948 111.74966785 -41.89549296 107.81221675 -45.3659668 103.94262695 C-45.83421875 103.40927734 -46.3024707 102.87592773 -46.78491211 102.32641602 C-47.97850608 101.01372156 -49.26087171 99.78295869 -50.5534668 98.56762695 C-51.5434668 98.56762695 -52.5334668 98.56762695 -53.5534668 98.56762695 C-55.51625983 100.58028684 -55.51625983 100.58028684 -57.4909668 103.25512695 C-61.01135367 107.71428366 -64.66113943 111.93071665 -68.5534668 116.06762695 C-73.0083724 120.82204553 -77.18396403 125.7195224 -81.26049805 130.8059082 C-84.66707635 134.90889093 -88.31390147 138.77019231 -91.9753418 142.64575195 C-94.45267973 145.26870121 -94.45267973 145.26870121 -95.61265564 147.36018372 C-96.78480462 149.34145507 -97.91059188 150.95005484 -99.5534668 152.56762695 C-102.63625651 153.2156399 -104.64408713 153.40036688 -107.69799805 153.2512207 C-108.46778488 153.24131607 -109.23757172 153.23141144 -110.03068542 153.22120667 C-112.47775822 153.18216846 -114.92026229 153.09438975 -117.3659668 153.00512695 C-119.02931322 152.96999837 -120.69273034 152.93806204 -122.35620117 152.90942383 C-126.42370369 152.83244415 -130.48781216 152.71175417 -134.5534668 152.56762695 C-130.69996923 147.22133303 -126.61388565 142.31994295 -122.0534668 137.56762695 C-118.43219179 133.7470768 -114.94988205 129.97203528 -111.8659668 125.69262695 C-111.1028418 124.66137695 -110.3397168 123.63012695 -109.5534668 122.56762695 C-108.8934668 122.56762695 -108.2334668 122.56762695 -107.5534668 122.56762695 C-107.33819336 122.04426758 -107.12291992 121.5209082 -106.90112305 120.98168945 C-105.01961114 117.61132899 -102.51989298 114.83450632 -99.9909668 111.94262695 C-99.4544751 111.32307129 -98.9179834 110.70351562 -98.36523438 110.06518555 C-94.47883973 105.59036402 -90.53324248 101.17053119 -86.5534668 96.77856445 C-82.56150255 92.36557272 -78.66367807 87.87339606 -74.8034668 83.3449707 C-69.22731053 76.80634964 -63.59091763 70.35196815 -57.7878418 64.01293945 C-53.10522663 58.88825922 -48.60727942 53.65195042 -44.2409668 48.25512695 C-40.32860612 43.43940286 -36.20860704 38.86492648 -32.0065918 34.30200195 C-29.67630412 31.70454753 -27.48099512 29.04356981 -25.3034668 26.31762695 C-20.92371302 20.8704063 -16.18347357 15.81241382 -11.33764648 10.78149414 C-10.76175781 10.17724609 -10.18586914 9.57299805 -9.5925293 8.95043945 C-9.07899902 8.41821777 -8.56546875 7.88599609 -8.03637695 7.33764648 C-6.39586506 5.54434117 -6.39586506 5.54434117 -5.36035156 2.88671875 C-3.5534668 0.56762695 -3.5534668 0.56762695 0 0 Z " fill="#010101" transform="translate(306.553466796875,106.432373046875)"/>
<path d="M0 0 C2.06298828 -0.34057617 2.06298828 -0.34057617 4.5703125 -0.29296875 C5.46621094 -0.28330078 6.36210937 -0.27363281 7.28515625 -0.26367188 C8.69087891 -0.2259668 8.69087891 -0.2259668 10.125 -0.1875 C11.06988281 -0.17396484 12.01476562 -0.16042969 12.98828125 -0.14648438 C15.32608779 -0.11106306 17.66276237 -0.06167271 20 0 C20.09257084 12.59535401 20.16369942 25.19062746 20.20724869 37.78625202 C20.22814735 43.63456019 20.25650687 49.48263608 20.30175781 55.33081055 C20.34513382 60.97180154 20.36911992 66.61256875 20.37950897 72.25371361 C20.38691515 74.40878003 20.40137719 76.56383384 20.42292023 78.71880531 C20.45184428 81.7311844 20.45596057 84.74263196 20.45410156 87.75512695 C20.47567322 89.09948067 20.47567322 89.09948067 20.49768066 90.47099304 C20.45705348 96.53181003 20.45705348 96.53181003 17.97161865 99.07780457 C16.99566742 99.53429131 16.99566742 99.53429131 16 100 C16 95.97925308 16.04895597 91.95919063 16.09179688 87.9387207 C16.10155045 87.01169342 16.11130402 86.08466614 16.12135315 85.12954712 C16.1536691 82.06162356 16.18620883 78.99370242 16.21875 75.92578125 C16.241184 73.80014561 16.26360407 71.67450983 16.28601074 69.5488739 C16.34505511 63.95111953 16.40428912 58.35336719 16.46356201 52.75561523 C16.52399916 47.04476032 16.5842578 41.33390352 16.64453125 35.62304688 C16.76284567 24.41536273 16.88137683 13.20768089 17 2 C7.595 2.495 7.595 2.495 -2 3 C-1.34 2.01 -0.68 1.02 0 0 Z " fill="#252525" transform="translate(217,60)"/>
<path d="M0 0 C1.46548912 0.00079008 2.93112915 0.02895674 4.39575195 0.0793457 C5.16836868 0.08642044 5.94098541 0.09349518 6.73701477 0.1007843 C9.20367462 0.1287644 11.66806024 0.19150288 14.1340332 0.25512695 C15.80652645 0.28020545 17.47905529 0.30301942 19.15161133 0.32348633 C23.25079429 0.37860205 27.34827827 0.46489399 31.4465332 0.56762695 C30.13263982 3.45677751 28.70582455 5.5727935 26.50512695 7.8527832 C25.92609619 8.46017334 25.34706543 9.06756348 24.75048828 9.69335938 C23.82659302 10.65205933 23.82659302 10.65205933 22.8840332 11.63012695 C17.90298314 16.87477158 13.18885029 22.21672016 8.66918945 27.8684082 C2.98180925 34.77522669 -3.19507938 41.27785523 -9.5534668 47.56762695 C-9.5534668 43.56762695 -9.5534668 43.56762695 -7.8659668 41.69262695 C-7.1028418 40.99137695 -6.3397168 40.29012695 -5.5534668 39.56762695 C-4.66718373 38.49350479 -3.79244168 37.40977324 -2.9284668 36.31762695 C-1.7528418 34.95637695 -1.7528418 34.95637695 -0.5534668 33.56762695 C0.1065332 33.56762695 0.7665332 33.56762695 1.4465332 33.56762695 C1.4465332 32.57762695 1.4465332 31.58762695 1.4465332 30.56762695 C2.1065332 30.56762695 2.7665332 30.56762695 3.4465332 30.56762695 C3.6940332 30.01075195 3.9415332 29.45387695 4.1965332 28.88012695 C5.67578138 26.14351782 7.3812076 23.89111826 9.4465332 21.56762695 C10.1065332 21.56762695 10.7665332 21.56762695 11.4465332 21.56762695 C11.70821289 20.97594727 11.96989258 20.38426758 12.23950195 19.7746582 C13.85634386 16.81829678 16.04697691 14.9159792 18.49731445 12.6418457 C21.14661616 9.82264889 23.2405783 6.74556887 25.4465332 3.56762695 C21.2990126 3.47331384 17.15741934 3.48060667 13.0090332 3.50512695 C11.84436523 3.47741211 10.67969727 3.44969727 9.47973633 3.42114258 C2.62278227 3.50844098 2.62278227 3.50844098 -3.30395508 6.64233398 C-5.72212001 9.07549809 -5.72212001 9.07549809 -7.76855469 11.63623047 C-8.35757568 12.27359131 -8.94659668 12.91095215 -9.5534668 13.56762695 C-10.5434668 13.56762695 -11.5334668 13.56762695 -12.5534668 13.56762695 C-13.2134668 14.88762695 -13.8734668 16.20762695 -14.5534668 17.56762695 C-15.5434668 17.56762695 -16.5334668 17.56762695 -17.5534668 17.56762695 C-16.41458008 16.35526367 -16.41458008 16.35526367 -15.25268555 15.1184082 C-14.24854866 14.03919566 -13.24465526 12.95975654 -12.2409668 11.88012695 C-11.74145508 11.34967773 -11.24194336 10.81922852 -10.72729492 10.27270508 C-9.99736328 9.48476562 -9.99736328 9.48476562 -9.25268555 8.6809082 C-8.80755615 8.20435791 -8.36242676 7.72780762 -7.90380859 7.23681641 C-6.39246706 5.51805381 -6.39246706 5.51805381 -5.3815918 2.90356445 C-3.5534668 0.56762695 -3.5534668 0.56762695 0 0 Z " fill="#191919" transform="translate(306.553466796875,106.432373046875)"/>
<path d="M0 0 C0.33 1.32 0.66 2.64 1 4 C-0.65 5.32 -2.3 6.64 -4 8 C8.43039163 8.11582432 20.860655 8.20468044 33.29147625 8.25906086 C39.06357056 8.28516017 44.83529583 8.32056517 50.60717773 8.37719727 C56.17686912 8.43150385 61.74620543 8.46141801 67.31614113 8.47438622 C69.44166466 8.48362843 71.56716865 8.50167637 73.69254112 8.52865028 C76.66874638 8.56492194 79.6434825 8.56994605 82.61987305 8.56762695 C83.93941483 8.59459152 83.93941483 8.59459152 85.28561401 8.62210083 C89.74983301 8.58443473 91.41117739 8.49734221 94.94172668 5.51530457 C95.62095688 4.68525406 96.30018707 3.85520355 97 3 C99.3125 2.1875 99.3125 2.1875 101 2 C100.02180976 3.31322788 99.0424189 4.62556152 98.0625 5.9375 C97.24458984 7.03384766 97.24458984 7.03384766 96.41015625 8.15234375 C95 10 95 10 94 11 C92.65927183 11.09527037 91.31357497 11.1218877 89.96946716 11.12025452 C89.10143463 11.12162918 88.2334021 11.12300385 87.33906555 11.12442017 C86.37953476 11.12082489 85.42000397 11.11722961 84.43139648 11.11352539 C83.42663269 11.11367142 82.4218689 11.11381744 81.38665771 11.1139679 C78.04811483 11.1132683 74.70962695 11.10547374 71.37109375 11.09765625 C69.06323782 11.09579224 66.75538149 11.09436826 64.44752502 11.09336853 C58.35982174 11.08954204 52.27214214 11.07971065 46.18444824 11.06866455 C39.97778646 11.05845323 33.77112087 11.05387151 27.56445312 11.04882812 C15.37629165 11.0380885 3.18814779 11.02101052 -9 11 C-8.06558465 9.72689688 -7.12732889 8.456612 -6.1875 7.1875 C-5.66542969 6.47980469 -5.14335938 5.77210938 -4.60546875 5.04296875 C-3.16871123 3.21468607 -1.68184237 1.60103312 0 0 Z " fill="#131313" transform="translate(53,248)"/>
<path d="M0 0 C0.66 0 1.32 0 2 0 C2.17400017 5.26513041 2.3005091 10.52856208 2.38452148 15.79589844 C2.4195657 17.58460669 2.46721801 19.37311671 2.52807617 21.16113281 C3.08482143 37.94770408 3.08482143 37.94770408 -1.52734375 43.21875 C-3.48413086 44.93554688 -3.48413086 44.93554688 -5 46 C-5.33 45.01 -5.66 44.02 -6 43 C-5.36868164 42.25854736 -4.73736328 41.51709473 -4.08691406 40.75317383 C-1.42797704 37.2453553 -1.53519417 35.30734237 -1.609375 30.94921875 C-1.61786469 29.96100883 -1.61786469 29.96100883 -1.62652588 28.95283508 C-1.64878761 26.86362784 -1.6989567 24.77618227 -1.75 22.6875 C-1.77007856 21.26499886 -1.78832696 19.84247063 -1.8046875 18.41992188 C-1.84861641 14.9460492 -1.91756904 11.47319675 -2 8 C-3.30211116 9.09274916 -4.59775613 10.19320645 -5.890625 11.296875 C-6.61282227 11.90885742 -7.33501953 12.52083984 -8.07910156 13.15136719 C-10.49017696 15.47173614 -11.62529655 17.97565241 -13 21 C-16.3 24 -16.3 24 -19 24 C-19.33 25.32 -19.66 26.64 -20 28 C-20.66 28 -21.32 28 -22 28 C-22.37125 28.8353125 -22.37125 28.8353125 -22.75 29.6875 C-25.00474131 33.85877143 -26.76283335 36.50037501 -31.25 38.3125 C-32.61125 38.6528125 -32.61125 38.6528125 -34 39 C-30.01966774 33.20748394 -25.46075851 28.34814565 -20.4453125 23.4375 C-17.75593147 20.75671124 -15.26377703 17.96595719 -12.796875 15.08203125 C-9.90291904 11.72881706 -6.9026753 8.47160786 -3.91796875 5.19921875 C-1.87480508 2.95177481 -1.87480508 2.95177481 0 0 Z " fill="#252525" transform="translate(186,175)"/>
<path d="M0 0 C0.99 0.33 1.98 0.66 3 1 C2.195625 1.928125 1.39125 2.85625 0.5625 3.8125 C-2.08253361 6.89013256 -4.64136305 10.02772573 -7.1875 13.1875 C-10.93670102 17.79366125 -14.86611161 22.16887816 -18.90844727 26.51391602 C-22.71994213 30.63464915 -26.26521138 34.93571469 -29.78515625 39.30859375 C-33.37560806 43.67159427 -37.18059741 47.83748323 -41 52 C-41.66 51.34 -42.32 50.68 -43 50 C-42.41992188 49.3709375 -41.83984375 48.741875 -41.2421875 48.09375 C-37.06492237 43.51668061 -33.0497076 38.95961483 -29.484375 33.88671875 C-27.51735825 31.38653693 -25.249497 29.249497 -23 27 C-20.91703981 24.68074628 -18.89449995 22.3120492 -16.875 19.9375 C-16.35035156 19.32583984 -15.82570312 18.71417969 -15.28515625 18.08398438 C-13.1846992 15.62458846 -11.14168029 13.19790767 -9.2578125 10.56640625 C-8.63519531 9.79103516 -8.63519531 9.79103516 -8 9 C-7.34 9 -6.68 9 -6 9 C-5.7525 8.443125 -5.505 7.88625 -5.25 7.3125 C-3.78393985 4.60028873 -1.97010529 2.36412635 0 0 Z " fill="#1C1C1C" transform="translate(205,109)"/>
<path d="M0 0 C1.46548912 0.00079008 2.93112915 0.02895674 4.39575195 0.0793457 C5.16836868 0.08642044 5.94098541 0.09349518 6.73701477 0.1007843 C9.20367462 0.1287644 11.66806024 0.19150288 14.1340332 0.25512695 C15.80652645 0.28020545 17.47905529 0.30301942 19.15161133 0.32348633 C23.25079429 0.37860205 27.34827827 0.46489399 31.4465332 0.56762695 C31.4465332 1.22762695 31.4465332 1.88762695 31.4465332 2.56762695 C30.06316772 2.58780884 30.06316772 2.58780884 28.65185547 2.60839844 C25.18827465 2.67993576 21.7304293 2.79090728 18.26904297 2.92773438 C16.77893427 2.97876219 15.2882168 3.01459568 13.79736328 3.03417969 C4.65881653 3.03365919 4.65881653 3.03365919 -3.49145508 6.67358398 C-5.91016512 9.09305043 -5.91016512 9.09305043 -7.87402344 11.65380859 C-8.42823975 12.28536865 -8.98245605 12.91692871 -9.5534668 13.56762695 C-10.5434668 13.56762695 -11.5334668 13.56762695 -12.5534668 13.56762695 C-13.2134668 14.88762695 -13.8734668 16.20762695 -14.5534668 17.56762695 C-15.5434668 17.56762695 -16.5334668 17.56762695 -17.5534668 17.56762695 C-16.41458008 16.35526367 -16.41458008 16.35526367 -15.25268555 15.1184082 C-14.24854866 14.03919566 -13.24465526 12.95975654 -12.2409668 11.88012695 C-11.74145508 11.34967773 -11.24194336 10.81922852 -10.72729492 10.27270508 C-9.99736328 9.48476562 -9.99736328 9.48476562 -9.25268555 8.6809082 C-8.80755615 8.20435791 -8.36242676 7.72780762 -7.90380859 7.23681641 C-6.39246706 5.51805381 -6.39246706 5.51805381 -5.3815918 2.90356445 C-3.5534668 0.56762695 -3.5534668 0.56762695 0 0 Z " fill="#333333" transform="translate(306.553466796875,106.432373046875)"/>
<path d="M0 0 C0.495 1.485 0.495 1.485 1 3 C0.34 3 -0.32 3 -1 3 C-1.14308594 3.90105469 -1.14308594 3.90105469 -1.2890625 4.8203125 C-2.15631157 7.47924098 -3.1580908 8.21933363 -5.375 9.875 C-8.7214466 12.56715154 -10.17492579 15.08912669 -12 19 C-15.3 22 -15.3 22 -18 22 C-18.33 23.32 -18.66 24.64 -19 26 C-19.66 26 -20.32 26 -21 26 C-21.37125 26.8353125 -21.37125 26.8353125 -21.75 27.6875 C-24.00474131 31.85877143 -25.76283335 34.50037501 -30.25 36.3125 C-31.61125 36.6528125 -31.61125 36.6528125 -33 37 C-29.01966774 31.20748394 -24.46075851 26.34814565 -19.4453125 21.4375 C-16.7580538 18.75882679 -14.26812715 15.96939541 -11.80078125 13.08984375 C-3.77027027 3.77027027 -3.77027027 3.77027027 0 0 Z " fill="#212121" transform="translate(185,177)"/>
<path d="M0 0 C0.66 0.33 1.32 0.66 2 1 C0.63016497 4.16115776 0.0109362 4.9927092 -3 7 C0.93260944 7.07421454 4.86494722 7.12863136 8.7980957 7.16479492 C10.79327701 7.18728333 12.78826213 7.22540198 14.78320312 7.26367188 C16.03681641 7.27333984 17.29042969 7.28300781 18.58203125 7.29296875 C19.73936768 7.3086792 20.8967041 7.32438965 22.08911133 7.34057617 C25.02107978 7.2576975 25.02107978 7.2576975 26.90112305 5.48168945 C27.26375244 4.99273193 27.62638184 4.50377441 28 4 C28.99 4.33 29.98 4.66 31 5 C29.50292969 7.46948242 29.50292969 7.46948242 27 10 C24.11154859 10.44711382 21.82722933 10.58784719 18.953125 10.48828125 C18.18192322 10.48120651 17.41072144 10.47413177 16.6161499 10.46684265 C14.15976788 10.43891578 11.70568949 10.37618739 9.25 10.3125 C7.58206424 10.28741461 5.91409264 10.26460185 4.24609375 10.24414062 C0.16317873 10.18909562 -3.91802049 10.10284057 -8 10 C-7.04367001 8.70684939 -6.08486149 7.41553147 -5.125 6.125 C-4.59132812 5.40570313 -4.05765625 4.68640625 -3.5078125 3.9453125 C-2 2 -2 2 0 0 Z " fill="#151515" transform="translate(180,249)"/>
<path d="M0 0 C3.26330303 3.17265572 6.18796895 6.42487505 9 10 C4.088839 10.14847696 -0.82101286 10.2572708 -5.73388672 10.32958984 C-7.40436561 10.35973821 -9.0746865 10.40066552 -10.74462891 10.45263672 C-13.14785705 10.52554846 -15.54899164 10.55947188 -17.953125 10.5859375 C-18.69806213 10.61690521 -19.44299927 10.64787292 -20.21051025 10.67977905 C-22.33300781 10.68115234 -22.33300781 10.68115234 -26 10 C-28.50292969 6.96337891 -28.50292969 6.96337891 -30 4 C-29.01 4 -28.02 4 -27 4 C-26.67 5.32 -26.34 6.64 -26 8 C-16.43 7.67 -6.86 7.34 3 7 C2.01 6.01 1.02 5.02 0 4 C0 2.68 0 1.36 0 0 Z " fill="#242424" transform="translate(329,249)"/>
<path d="M0 0 C1.15039081 1.15039081 2.30044707 2.30111734 3.44921875 3.453125 C4.50916662 4.51040298 5.57454233 5.56225995 6.64453125 6.609375 C13.08422473 12.9473126 18.87831281 19.55027318 24 27 C23.01 27 22.02 27 21 27 C19.98133771 25.34467377 18.98189187 23.67739862 18 22 C17.01 21.67 16.02 21.34 15 21 C10 15.53488372 10 15.53488372 10 13 C9.01 12.67 8.02 12.34 7 12 C5.17578125 10.0390625 5.17578125 10.0390625 3.3125 7.625 C2.68988281 6.83351562 2.06726563 6.04203125 1.42578125 5.2265625 C0 3 0 3 0 0 Z " fill="#202020" transform="translate(278,191)"/>
<path d="M0 0 C0.33 0.66 0.66 1.32 1 2 C-1.72721138 7.68637631 -5.40165631 11.92191232 -9.75 16.4375 C-10.35199219 17.07365234 -10.95398438 17.70980469 -11.57421875 18.36523438 C-13.04335093 19.91598501 -14.52081963 21.45883086 -16 23 C-16.99 22.67 -17.98 22.34 -19 22 C-6.04255319 6.85106383 -6.04255319 6.85106383 0 0 Z " fill="#303030" transform="translate(107,186)"/>
<path d="M0 0 C0 7.46899181 -7.26490465 13.82576226 -11.9140625 19.09375 C-14 21 -14 21 -17 21 C-17.66 22.32 -18.32 23.64 -19 25 C-19.99 25 -20.98 25 -22 25 C-21.31035156 24.26136719 -20.62070313 23.52273437 -19.91015625 22.76171875 C-14.30996169 16.7279672 -8.92743737 10.60566326 -3.77734375 4.1796875 C-2 2 -2 2 0 0 Z " fill="#2B2B2B" transform="translate(183,99)"/>
<path d="M0 0 C0.66 0.66 1.32 1.32 2 2 C1.21496094 2.845625 0.42992187 3.69125 -0.37890625 4.5625 C-5.52606409 10.11693971 -10.6654987 15.66615371 -15.59765625 21.4140625 C-17.00746606 23.00844351 -18.47969358 24.51127265 -20 26 C-20 21.66731729 -19.93913556 21.43913314 -17.1484375 18.57421875 C-16.24158203 17.62579102 -16.24158203 17.62579102 -15.31640625 16.65820312 C-14.67574219 16.00787109 -14.03507813 15.35753906 -13.375 14.6875 C-12.13142078 13.4010835 -10.88922325 12.11332984 -9.6484375 10.82421875 C-9.0409668 10.19563965 -8.43349609 9.56706055 -7.80761719 8.91943359 C-5.09321667 6.03712445 -2.54784079 3.02997066 0 0 Z " fill="#1B1B1B" transform="translate(143,181)"/>
<path d="M0 0 C0.99 0.33 1.98 0.66 3 1 C2.195625 1.928125 1.39125 2.85625 0.5625 3.8125 C-2.99609148 7.95432856 -6.42444358 12.19838879 -9.8515625 16.44921875 C-11.80971251 18.77407686 -13.74143725 20.96538757 -16 23 C-16.66 23 -17.32 23 -18 23 C-16.43988817 19.5222507 -14.36827674 16.72775973 -12 13.75 C-11.29875 12.85796875 -10.5975 11.9659375 -9.875 11.046875 C-9.25625 10.37140625 -8.6375 9.6959375 -8 9 C-7.34 9 -6.68 9 -6 9 C-5.7525 8.443125 -5.505 7.88625 -5.25 7.3125 C-3.78393985 4.60028873 -1.97010529 2.36412635 0 0 Z " fill="#1A1A1A" transform="translate(205,109)"/>
<path d="M0 0 C0.33 0.66 0.66 1.32 1 2 C-1.88168196 8.13923547 -6.09931961 13.32207781 -11 18 C-11.66 18 -12.32 18 -13 18 C-13 18.99 -13 19.98 -13 21 C-14.65 21.33 -16.3 21.66 -18 22 C-15.30590744 17.76553507 -12.43772642 14.12152694 -9 10.4375 C-5.85228745 7.05466868 -2.84521104 3.64213358 0 0 Z " fill="#333333" transform="translate(288,125)"/>
<path d="M0 0 C4.875 4.625 4.875 4.625 6 8 C7.33276451 8.66780311 8.66618636 9.33429481 10 10 C11.88671875 11.98828125 11.88671875 11.98828125 13.6875 14.3125 C14.28949219 15.07175781 14.89148438 15.83101562 15.51171875 16.61328125 C17.08115514 19.13014642 17.61247182 21.08062107 18 24 C14.77964197 20.90845629 11.86578673 17.59698019 8.94140625 14.23046875 C6.86969976 11.85029891 4.781773 9.48533309 2.6875 7.125 C2.03136719 6.38507813 1.37523437 5.64515625 0.69921875 4.8828125 C-0.49846409 3.55572485 -1.73595771 2.26404229 -3 1 C-2.01 0.67 -1.02 0.34 0 0 Z " fill="#1F1F1F" transform="translate(257,202)"/>
<path d="M0 0 C0.99 0.33 1.98 0.66 3 1 C-3.10384025 8.19940132 -9.26932357 15.37591799 -16 22 C-16 17.9666466 -14.39120082 16.16482462 -12 13 C-11.34 13 -10.68 13 -10 13 C-10 12.34 -10 11.68 -10 11 C-8.35697047 9.31002677 -6.68528688 7.64783606 -5 6 C-3.28800793 4.03352262 -1.64629473 2.02259067 0 0 Z " fill="#1F1F1F" transform="translate(177,220)"/>
<path d="M0 0 C0.33 0 0.66 0 1 0 C1.48030296 2.65667575 1.42993761 4.37655314 -0.125 6.63134766 C-1.69895365 8.41587909 -3.32598373 10.12151735 -5 11.8125 C-5.57234375 12.40998047 -6.1446875 13.00746094 -6.734375 13.62304688 C-8.14523145 15.09268901 -9.57119239 16.54780417 -11 18 C-11.99 17.67 -12.98 17.34 -14 17 C-13.57589844 16.52691406 -13.15179688 16.05382812 -12.71484375 15.56640625 C-8.73484691 11.07906915 -4.99215484 6.47837594 -1.3828125 1.6875 C-0.92648438 1.130625 -0.47015625 0.57375 0 0 Z " fill="#252525" transform="translate(206,72)"/>
<path d="M0 0 C0.66 0.33 1.32 0.66 2 1 C-3.50589337 7.81864109 -9.11465278 14.50527078 -15 21 C-15.66 20.67 -16.32 20.34 -17 20 C-16.1875 18.0625 -16.1875 18.0625 -15 16 C-14.01 15.67 -13.02 15.34 -12 15 C-11.31379969 13.67661368 -10.65213539 12.34050052 -10 11 C-8.43955895 8.85832084 -6.79050671 6.96955738 -5 5 C-4.34 5 -3.68 5 -3 5 C-2.690625 4.360625 -2.38125 3.72125 -2.0625 3.0625 C-1 1 -1 1 0 0 Z " fill="#161616" transform="translate(251,204)"/>
<path d="M0 0 C0.99 0.33 1.98 0.66 3 1 C1.02 3.31 -0.96 5.62 -3 8 C7.89 8 18.78 8 30 8 C30 8.33 30 8.66 30 9 C18.78 9 7.56 9 -4 9 C-2.875 2.25 -2.875 2.25 0 0 Z " fill="#242424" transform="translate(104,226)"/>
<path d="M0 0 C3.96 0 7.92 0 12 0 C7.70214922 5.03163018 3.36574458 10.02718443 -1 15 C-1.66 14.34 -2.32 13.68 -3 13 C-2.36191406 12.30132812 -1.72382813 11.60265625 -1.06640625 10.8828125 C-0.24011719 9.97273438 0.58617187 9.06265625 1.4375 8.125 C2.26121094 7.22007813 3.08492188 6.31515625 3.93359375 5.3828125 C6.00907942 3.18862073 6.00907942 3.18862073 7 1 C4.69 1 2.38 1 0 1 C0 0.67 0 0.34 0 0 Z " fill="#252525" transform="translate(325,109)"/>
<path d="M0 0 C0.66 0 1.32 0 2 0 C0.43909056 3.83132316 -2.1075134 6.1075134 -5 9 C-5.33 9.99 -5.66 10.98 -6 12 C-5.38125 12.2475 -4.7625 12.495 -4.125 12.75 C-1.64931313 14.20628639 -1.04874998 15.37812506 0 18 C-3.05957468 17.67218843 -4.05836134 16.94321599 -6.3125 14.75 C-8 12 -8 12 -8.0625 9.5 C-6.65664373 6.19210289 -4.71536492 4.31799445 -2 2 C-1.34 2 -0.68 2 0 2 C0 1.34 0 0.68 0 0 Z " fill="#181818" transform="translate(278,173)"/>
<path d="M0 0 C0.66 0.66 1.32 1.32 2 2 C0.08538791 4.25177648 -1.83159879 6.50145533 -3.75 8.75 C-4.28882813 9.38421875 -4.82765625 10.0184375 -5.3828125 10.671875 C-8.14664956 13.90758668 -10.92828267 17.04757267 -14 20 C-13.61956211 14.97079672 -10.93859188 12.31543924 -7.5625 8.875 C-3.5140406 4.66371437 -3.5140406 4.66371437 0 0 Z " fill="#171717" transform="translate(232,225)"/>
<path d="M0 0 C0.66 0.66 1.32 1.32 2 2 C-2.29 6.95 -6.58 11.9 -11 17 C-11.66 16.34 -12.32 15.68 -13 15 C-12.39671875 14.33613281 -11.7934375 13.67226562 -11.171875 12.98828125 C-10.37265625 12.10527344 -9.5734375 11.22226563 -8.75 10.3125 C-7.96109375 9.44238281 -7.1721875 8.57226562 -6.359375 7.67578125 C-4.15500436 5.17579137 -2.05866059 2.62054272 0 0 Z " fill="#202020" transform="translate(295,153)"/>
<path d="M0 0 C0.33 0.99 0.66 1.98 1 3 C-2.13080272 8.99153621 -6.03729966 13.80050225 -12 17 C-10.58553805 12.49943923 -8.33859484 10.2609531 -5 7 C-3.24650678 4.71759985 -1.62964991 2.37463272 0 0 Z " fill="#3B3B3B" transform="translate(144,143)"/>
<path d="M0 0 C0.33 0.99 0.66 1.98 1 3 C-0.36328125 4.9375 -0.36328125 4.9375 -2.3125 7 C-4.45825516 9.29809072 -6.24671907 11.3700786 -8 14 C-10.625 14.6875 -10.625 14.6875 -13 15 C-8.70214922 9.96836982 -4.36574458 4.97281557 0 0 Z " fill="#2E2E2E" transform="translate(158,128)"/>
<path d="M0 0 C0.33 1.32 0.66 2.64 1 4 C-0.65234375 6.359375 -0.65234375 6.359375 -2.9375 8.75 C-4.06478516 9.94882813 -4.06478516 9.94882813 -5.21484375 11.171875 C-5.80394531 11.77515625 -6.39304687 12.3784375 -7 13 C-7.66 12.01 -8.32 11.02 -9 10 C-6.03 6.7 -3.06 3.4 0 0 Z " fill="#1F1F1F" transform="translate(269,147)"/>
<path d="M0 0 C1.32 0.66 2.64 1.32 4 2 C4 2.33 4 2.66 4 3 C-7.22 3 -18.44 3 -30 3 C-30 2.67 -30 2.34 -30 2 C-20.1 2 -10.2 2 0 2 C0 1.34 0 0.68 0 0 Z " fill="#090909" transform="translate(334,256)"/>
<path d="M0 0 C4.24846075 0.47205119 6.26819288 2.88877522 9 6 C9 6.66 9 7.32 9 8 C9.66 8 10.32 8 11 8 C11.66 9.32 12.32 10.64 13 12 C10 12 10 12 7.51953125 9.62890625 C6.60868353 8.61434157 5.7066273 7.59183057 4.8125 6.5625 C4.34908203 6.04623047 3.88566406 5.52996094 3.40820312 4.99804688 C0 1.15817148 0 1.15817148 0 0 Z " fill="#222222" transform="translate(284,236)"/>
<path d="M0 0 C4.25209792 4.12324647 8.13635705 8.51282966 12 13 C11.01 13.33 10.02 13.66 9 14 C0 3.5 0 3.5 0 0 Z " fill="#252525" transform="translate(306,223)"/>
<path d="M0 0 C0.33 0.99 0.66 1.98 1 3 C-0.29296875 4.9375 -0.29296875 4.9375 -2.1875 7 C-2.79980469 7.680625 -3.41210938 8.36125 -4.04296875 9.0625 C-5.92077226 10.92156295 -7.84767281 12.47284989 -10 14 C-10.66 13.67 -11.32 13.34 -12 13 C-8.04 8.71 -4.08 4.42 0 0 Z " fill="#2E2E2E" transform="translate(147,219)"/>
<path d="M0 0 C0.66 0 1.32 0 2 0 C0.48446596 3.47775179 -1.5773456 5.9557984 -4.125 8.75 C-5.21167969 9.94882813 -5.21167969 9.94882813 -6.3203125 11.171875 C-6.87460938 11.77515625 -7.42890625 12.3784375 -8 13 C-8.66 12.34 -9.32 11.68 -10 11 C-8.38150935 9.16053461 -6.75581169 7.32848583 -5.125 5.5 C-4.66480469 4.97535156 -4.20460937 4.45070312 -3.73046875 3.91015625 C-2.52827924 2.56858245 -1.26754054 1.28000815 0 0 Z " fill="#272727" transform="translate(172,148)"/>
<path d="M0 0 C1.32 0.33 2.64 0.66 4 1 C0.33333333 4.66666667 -3.33333333 8.33333333 -7 12 C-6.67566492 6.64847115 -3.50295176 3.71719957 0 0 Z " fill="#181818" transform="translate(157,164)"/>
<path d="M0 0 C0.66 0.33 1.32 0.66 2 1 C-0.64 3.97 -3.28 6.94 -6 10 C-6.99 9.67 -7.98 9.34 -9 9 C-7.87895467 7.68412059 -6.75303035 6.37239647 -5.625 5.0625 C-4.99851562 4.33160156 -4.37203125 3.60070312 -3.7265625 2.84765625 C-2 1 -2 1 0 0 Z " fill="#272727" transform="translate(97,199)"/>
<path d="M0 0 C-0.58536753 3.66060821 -2.083239 5.54535164 -4.5625 8.25 C-5.20316406 8.95640625 -5.84382813 9.6628125 -6.50390625 10.390625 C-6.99761719 10.92171875 -7.49132812 11.4528125 -8 12 C-8.66 11.67 -9.32 11.34 -10 11 C-8.64763423 8.06120516 -7.10057341 5.70767089 -5 3.25 C-4.484375 2.63640625 -3.96875 2.0228125 -3.4375 1.390625 C-2 0 -2 0 0 0 Z " fill="#161616" transform="translate(132,195)"/>
<path d="M0 0 C0.66 1.32 1.32 2.64 2 4 C0.50260417 5.23697917 -0.99479167 6.47395833 -2.4921875 7.7109375 C-3.71051161 8.75250992 -4.86660097 9.86660097 -6 11 C-6 7.39426104 -5.18292538 6.58663434 -3 3.8125 C-2.443125 3.09707031 -1.88625 2.38164062 -1.3125 1.64453125 C-0.879375 1.10183594 -0.44625 0.55914062 0 0 Z " fill="#272727" transform="translate(77,220)"/>
<path d="M0 0 C0.66 0.66 1.32 1.32 2 2 C-1.33333333 5.33333333 -4.66666667 8.66666667 -8 12 C-8.33 11.34 -8.66 10.68 -9 10 C-7.8758824 8.70756532 -6.75067408 7.41607925 -5.625 6.125 C-4.99851563 5.40570313 -4.37203125 4.68640625 -3.7265625 3.9453125 C-2.52573166 2.5923402 -1.2791655 1.2791655 0 0 Z " fill="#212121" transform="translate(229,162)"/>
<path d="M0 0 C0.33 0.66 0.66 1.32 1 2 C-0.42936639 3.81892117 -1.86876965 5.62995881 -3.3125 7.4375 C-4.51326172 8.95150391 -4.51326172 8.95150391 -5.73828125 10.49609375 C-8 13 -8 13 -11 14 C-9.42219077 10.28954753 -7.09296752 7.70093616 -4.375 4.75 C-3.55773437 3.85796875 -2.74046875 2.9659375 -1.8984375 2.046875 C-1.27195313 1.37140625 -0.64546875 0.6959375 0 0 Z " fill="#CACACA" transform="translate(234,159)"/>
<path d="M0 0 C0.99 0.33 1.98 0.66 3 1 C0.03 4.3 -2.94 7.6 -6 11 C-6.33 9.68 -6.66 8.36 -7 7 C-6.21625 6.401875 -5.4325 5.80375 -4.625 5.1875 C-1.85425677 3.08914751 -1.85425677 3.08914751 0 0 Z " fill="#242424" transform="translate(218,174)"/>
<path d="M0 0 C0.33 0.66 0.66 1.32 1 2 C0.38125 2.7425 -0.2375 3.485 -0.875 4.25 C-2.60437281 6.48801188 -3.86106661 8.43739987 -5 11 C-6.32 10.67 -7.64 10.34 -9 10 C-6.03 6.7 -3.06 3.4 0 0 Z " fill="#333333" transform="translate(87,209)"/>
<path d="M0 0 C0.66 0.99 1.32 1.98 2 3 C-0.88341534 7.21422242 -3.04303419 8.76075855 -8 10 C-7.04367001 8.70684939 -6.08486149 7.41553147 -5.125 6.125 C-4.59132812 5.40570313 -4.05765625 4.68640625 -3.5078125 3.9453125 C-2 2 -2 2 0 0 Z " fill="#3C3C3C" transform="translate(160,204)"/>
<path d="M0 0 C0.33 0.99 0.66 1.98 1 3 C-2.97610294 8.68014706 -2.97610294 8.68014706 -6.17578125 9.6796875 C-7.07876953 9.83824219 -7.07876953 9.83824219 -8 10 C-7.04367001 8.70684939 -6.08486149 7.41553147 -5.125 6.125 C-4.59132812 5.40570313 -4.05765625 4.68640625 -3.5078125 3.9453125 C-2 2 -2 2 0 0 Z " fill="#313131" transform="translate(242,178)"/>
<path d="M0 0 C0.33 1.32 0.66 2.64 1 4 C-1.64 6.31 -4.28 8.62 -7 11 C-7.66 10.67 -8.32 10.34 -9 10 C-6.03 6.7 -3.06 3.4 0 0 Z " fill="#2A2A2A" transform="translate(53,248)"/>
<path d="M0 0 C4 0 4 0 6.8125 2.75 C9 6 9 6 8.63671875 8.203125 C8.42660156 8.79609375 8.21648437 9.3890625 8 10 C6.66370254 8.52351062 5.33103329 7.0437367 4 5.5625 C3.2575 4.73878906 2.515 3.91507813 1.75 3.06640625 C0 1 0 1 0 0 Z " fill="#282828" transform="translate(275,226)"/>
<path d="M0 0 C0.99 0.33 1.98 0.66 3 1 C2.01 2.485 2.01 2.485 1 4 C0.34 4 -0.32 4 -1 4 C-1 4.99 -1 5.98 -1 7 C-2.65 7.33 -4.3 7.66 -6 8 C-2.25 2.25 -2.25 2.25 0 0 Z " fill="#282828" transform="translate(276,139)"/>
<path d="M0 0 C0.66 0.33 1.32 0.66 2 1 C0.70700306 3.88437779 -0.65941363 5.87219421 -3 8 C-3.99 7.67 -4.98 7.34 -6 7 C-4.02 4.69 -2.04 2.38 0 0 Z " fill="#262626" transform="translate(188,240)"/>
<path d="M0 0 C0.66 0.33 1.32 0.66 2 1 C0.60667426 4.36720387 -0.9789286 5.9859524 -4 8 C-4.66 7.67 -5.32 7.34 -6 7 C-4.02 4.69 -2.04 2.38 0 0 Z " fill="#333333" transform="translate(60,240)"/>
<path d="M0 0 C0.68359375 1.765625 0.68359375 1.765625 1 4 C-0.21484375 5.921875 -0.21484375 5.921875 -1.9375 7.75 C-2.50339844 8.36359375 -3.06929687 8.9771875 -3.65234375 9.609375 C-4.31943359 10.29773438 -4.31943359 10.29773438 -5 11 C-5.66 10.34 -6.32 9.68 -7 9 C-6.21654285 7.82780457 -5.42297164 6.66236332 -4.625 5.5 C-4.18414062 4.8503125 -3.74328125 4.200625 -3.2890625 3.53125 C-2.65097656 2.77328125 -2.65097656 2.77328125 -2 2 C-1.34 2 -0.68 2 0 2 C0 1.34 0 0.68 0 0 Z " fill="#171717" transform="translate(167,231)"/>
<path d="M0 0 C0.33 0.66 0.66 1.32 1 2 C-1.45614035 7 -1.45614035 7 -3 9 C-3.99 9.33 -4.98 9.66 -6 10 C-6.33 10.66 -6.66 11.32 -7 12 C-7.66 11.67 -8.32 11.34 -9 11 C-8.34 10.01 -7.68 9.02 -7 8 C-6.34 8 -5.68 8 -5 8 C-4.731875 7.4225 -4.46375 6.845 -4.1875 6.25 C-2.98280141 3.9674132 -1.59201885 2.0262058 0 0 Z " fill="#373737" transform="translate(204,221)"/>
<path d="M0 0 C4.55015893 1.51671964 6.50057264 5.16891053 9 9 C8.01 9 7.02 9 6 9 C4.98133771 7.34467377 3.98189187 5.67739862 3 4 C2.01 3.67 1.02 3.34 0 3 C0 2.01 0 1.02 0 0 Z " fill="#323232" transform="translate(293,209)"/>
<path d="M0 0 C0.33 1.32 0.66 2.64 1 4 C-1.97 6.475 -1.97 6.475 -5 9 C-5.33 8.34 -5.66 7.68 -6 7 C-4.02 4.69 -2.04 2.38 0 0 Z " fill="#2A2A2A" transform="translate(257,161)"/>
<path d="M0 0 C0.66 0.33 1.32 0.66 2 1 C0.60667426 4.36720387 -0.9789286 5.9859524 -4 8 C-4.66 7.67 -5.32 7.34 -6 7 C-4.02 4.69 -2.04 2.38 0 0 Z " fill="#343434" transform="translate(180,249)"/>
<path d="M0 0 C0.66 0.33 1.32 0.66 2 1 C0.60667426 4.36720387 -0.9789286 5.9859524 -4 8 C-4.66 7.67 -5.32 7.34 -6 7 C-4.02 4.69 -2.04 2.38 0 0 Z " fill="#2C2C2C" transform="translate(129,161)"/>
<path d="M0 0 C0.33 1.32 0.66 2.64 1 4 C-0.9375 6.25 -0.9375 6.25 -3 8 C-3.99 7.67 -4.98 7.34 -6 7 C-4.02 4.69 -2.04 2.38 0 0 Z " fill="#2E2E2E" transform="translate(198,82)"/>
<path d="M0 0 C0.33 1.32 0.66 2.64 1 4 C-0.65 5.32 -2.3 6.64 -4 8 C-4.66 7.67 -5.32 7.34 -6 7 C-4.02 4.69 -2.04 2.38 0 0 Z " fill="#282828" transform="translate(69,230)"/>
<path d="M0 0 C0.33 0 0.66 0 1 0 C1.25 2.3125 1.25 2.3125 1 5 C-0.8125 6.875 -0.8125 6.875 -3 8 C-3.99 7.67 -4.98 7.34 -6 7 C-5.02433888 5.83040013 -4.044375 4.66438823 -3.0625 3.5 C-2.51722656 2.8503125 -1.97195312 2.200625 -1.41015625 1.53125 C-0.71212891 0.77328125 -0.71212891 0.77328125 0 0 Z " fill="#2F2F2F" transform="translate(211,213)"/>
<path d="M0 0 C0.33 1.32 0.66 2.64 1 4 C-0.65 5.32 -2.3 6.64 -4 8 C-4.66 7.67 -5.32 7.34 -6 7 C-4.02 4.69 -2.04 2.38 0 0 Z " fill="#323232" transform="translate(249,170)"/>
<path d="M0 0 C0.99 0.33 1.98 0.66 3 1 C0.69 3.64 -1.62 6.28 -4 9 C-4.33 8.01 -4.66 7.02 -5 6 C-3.59554165 3.7363436 -1.8032087 1.9791315 0 0 Z " fill="#292929" transform="translate(223,236)"/>
<path d="M0 0 C0.66 0.66 1.32 1.32 2 2 C-1.465 4.97 -1.465 4.97 -5 8 C-5.33 7.34 -5.66 6.68 -6 6 C-4 4 -2 2 0 0 Z " fill="#202020" transform="translate(138,152)"/>
<path d="M0 0 C0.33 1.32 0.66 2.64 1 4 C-1.97 6.475 -1.97 6.475 -5 9 C-5.66 8.67 -6.32 8.34 -7 8 C-4.69 5.36 -2.38 2.72 0 0 Z " fill="#3F3F3F" transform="translate(219,204)"/>
<path d="M0 0 C2.62187494 1.04874998 3.79371361 1.64931313 5.25 4.125 C5.4975 4.74375 5.745 5.3625 6 6 C3.11424181 5.60196439 2.17810487 5.20990931 0.25 2.9375 C-0.1625 2.298125 -0.575 1.65875 -1 1 C-0.67 0.67 -0.34 0.34 0 0 Z " fill="#262626" transform="translate(272,185)"/>
<path d="M0 0 C0.99 0.33 1.98 0.66 3 1 C1.35 2.98 -0.3 4.96 -2 7 C-2.66 6.34 -3.32 5.68 -4 5 C-2.68 3.35 -1.36 1.7 0 0 Z " fill="#1D1D1D" transform="translate(205,109)"/>
<path d="M0 0 C0.33 0.99 0.66 1.98 1 3 C-0.40445835 5.2636564 -2.1967913 7.0208685 -4 9 C-4.33 8.01 -4.66 7.02 -5 6 C-3.59554165 3.7363436 -1.8032087 1.9791315 0 0 Z " fill="#1B1B1B" transform="translate(185,212)"/>
<path d="M0 0 C0.33 1.32 0.66 2.64 1 4 C-1.97 6.475 -1.97 6.475 -5 9 C-5.66 8.67 -6.32 8.34 -7 8 C-4.69 5.36 -2.38 2.72 0 0 Z " fill="#353535" transform="translate(178,184)"/>
<path d="M0 0 C0.33 0.66 0.66 1.32 1 2 C0.22265625 3.7265625 0.22265625 3.7265625 -0.9375 5.625 C-1.618125 6.73875 -2.29875 7.8525 -3 9 C-3.99 9 -4.98 9 -6 9 C-4.47291037 5.56404834 -2.40072955 2.88087546 0 0 Z " fill="#373737" transform="translate(214,63)"/>
<path d="M0 0 C0.66 0.66 1.32 1.32 2 2 C0.35 3.98 -1.3 5.96 -3 8 C-3.75 6.25 -3.75 6.25 -4 4 C-2.0625 1.75 -2.0625 1.75 0 0 Z " fill="#262626" transform="translate(143,181)"/>
<path d="M0 0 C0.66 0.33 1.32 0.66 2 1 C0.95125002 3.62187494 0.35068687 4.79371361 -2.125 6.25 C-2.74375 6.4975 -3.3625 6.745 -4 7 C-2.79618552 4.50638429 -1.54571278 2.31856917 0 0 Z " fill="#111111" transform="translate(191,125)"/>
<path d="M0 0 C0.33 1.32 0.66 2.64 1 4 C-0.32 4.99 -1.64 5.98 -3 7 C-3.66 6.67 -4.32 6.34 -5 6 C-3.35 4.02 -1.7 2.04 0 0 Z " fill="#363636" transform="translate(189,92)"/>
<path d="M0 0 C0.66 0 1.32 0 2 0 C1.6875 1.875 1.6875 1.875 1 4 C0.01 4.66 -0.98 5.32 -2 6 C-2 2 -2 2 0 0 Z " fill="#212121" transform="translate(237,219)"/>
<path d="M0 0 C0 3 0 3 -2 5.1875 C-2.66 5.785625 -3.32 6.38375 -4 7 C-4.33 6.34 -4.66 5.68 -5 5 C-3.35 3.35 -1.7 1.7 0 0 Z " fill="#1E1E1E" transform="translate(119,209)"/>
<path d="M0 0 C0.33 1.32 0.66 2.64 1 4 C-0.32 4.99 -1.64 5.98 -3 7 C-3.66 6.67 -4.32 6.34 -5 6 C-3.35 4.02 -1.7 2.04 0 0 Z " fill="#3C3C3C" transform="translate(120,171)"/>
<path d="M0 0 C1.32 0.33 2.64 0.66 4 1 C1.03 3.475 1.03 3.475 -2 6 C-2 3 -2 3 0 0 Z " fill="#282828" transform="translate(157,164)"/>
<path d="M0 0 C0.33 1.32 0.66 2.64 1 4 C-0.98 4.99 -2.96 5.98 -5 7 C-3.70700306 4.11562221 -2.34058637 2.12780579 0 0 Z " fill="#3B3B3B" transform="translate(269,147)"/>
<path d="M0 0 C0.66 0.66 1.32 1.32 2 2 C0.35 3.65 -1.3 5.3 -3 7 C-3.66 6.67 -4.32 6.34 -5 6 C-3.35 4.02 -1.7 2.04 0 0 Z " fill="#CDCDCD" transform="translate(198,121)"/>
</svg>
